#N canvas 422 42 470 534 12;
#X declare -path ./lib;
#X obj 45 48 n_oscreceive 9999;
#X obj 161 17 tgl 15 0 empty empty empty 17 7 0 10 -262144 -1 -1 0
1;
#X obj 45 17 tgl 20 0 empty empty listen 22 12 0 10 -191407 -1 -1 0
1;
#X obj 45 451 soundoutput;
#X obj 339 176 tgl 30 0 empty empty empty 17 7 0 10 -1 -262144 -1 0
1;
#X obj 339 148 change;
#X floatatom 45 171 5 0 0 0 - - -;
#X obj 94 172 hsl 100 15 0 1 0 0 empty empty empty -2 -8 0 10 -262144
-1 -1 0 1;
#X obj 45 140 line;
#X msg 45 112 \$1 100;
#X obj 45 409 c_spigot;
#X obj 339 369 t f;
#X obj 45 81 route pinch detected;
#X obj 45 203 t f f;
#X obj 168 297 m_scale 0 1 100 1000;
#X obj 72 335 sig~ 1;
#X obj 45 375 e_moog 100 1;
#X text 349 340 envelope;
#X text 192 266 filter freq;
#N canvas 309 173 371 419 oscillators 0;
#X obj 46 252 line~;
#X msg 46 222 \$1 100;
#X obj 46 157 m_scalefilter;
#X obj 134 92 loadbang;
#X obj 46 194 mtof;
#X msg 134 123 0 3 4 7 5 9;
#X obj 46 59 m_scale 0 1 48 72;
#X obj 208 224 mtof;
#X obj 208 283 s_blsquare;
#X obj 255 252 sig~ 0.25;
#X obj 208 252 - 1.5;
#X obj 46 283 s_blsquare;
#X obj 95 252 sig~ 0.5;
#X obj 208 196 - 12;
#X obj 46 318 *~ 0.5;
#X obj 208 318 *~ 0.25;
#X obj 46 26 inlet;
#X obj 46 360 outlet~;
#X connect 0 0 11 0;
#X connect 1 0 0 0;
#X connect 2 0 4 0;
#X connect 2 0 13 0;
#X connect 3 0 5 0;
#X connect 4 0 1 0;
#X connect 5 0 2 1;
#X connect 6 0 2 0;
#X connect 7 0 10 0;
#X connect 8 0 15 0;
#X connect 9 0 8 1;
#X connect 10 0 8 0;
#X connect 11 0 14 0;
#X connect 12 0 11 1;
#X connect 13 0 7 0;
#X connect 14 0 17 0;
#X connect 15 0 17 0;
#X connect 16 0 6 0;
#X restore 45 299 pd oscillators;
#X obj 335 42 loadbang;
#X obj 265 473 declare -path ./lib;
#X msg 335 79 \; pd dsp 1 \; #volume set 1;
#X connect 0 0 12 0;
#X connect 1 0 0 1;
#X connect 2 0 0 0;
#X connect 4 0 11 0;
#X connect 5 0 4 0;
#X connect 6 0 13 0;
#X connect 8 0 7 0;
#X connect 8 0 6 0;
#X connect 9 0 8 0;
#X connect 10 0 3 0;
#X connect 10 0 3 1;
#X connect 11 0 10 1;
#X connect 12 0 9 0;
#X connect 12 1 5 0;
#X connect 13 0 19 0;
#X connect 13 1 14 0;
#X connect 14 0 16 2;
#X connect 15 0 16 1;
#X connect 16 0 10 0;
#X connect 19 0 16 0;
#X connect 20 0 22 0;
