#N canvas 0 23 639 748 12;
#X obj 97 77 n_oscreceive 9999;
#X obj 213 46 tgl 15 0 empty empty empty 17 7 0 10 -262144 -1 -1 0
1;
#X obj 97 46 tgl 15 0 empty empty listen 17 7 0 10 -228856 -1 -1 1
1;
#X obj 219 673 soundoutput;
#N canvas 0 22 450 278 (subpatch) 0;
#X array kwak 44056 float 2;
#X coords 0 1 44056 -1 180 90 1 0 0;
#X restore 326 53 graph;
#X msg 97 318 1;
#X msg 157 318 0;
#X obj 156 173 sel 1;
#X obj 99 536 bng 30 250 50 0 empty empty one 34 15 0 10 -204786 -1
-1;
#X obj 201 536 bng 30 250 50 0 empty empty two 34 15 0 10 -262130 -1
-1;
#X obj 393 527 tgl 30 0 empty empty three 34 15 0 10 -159808 -262144
-1 0 1;
#X floatatom 97 203 5 0 0 0 - - -;
#X obj 97 173 line;
#X obj 100 234 hsl 100 30 0 1 0 0 empty empty pinch 8 8 0 10 -204800
-1 -1 6881 1;
#X msg 97 142 \$1 50;
#X obj 340 396 u_demux2;
#X obj 393 360 hradio 15 1 0 2 empty empty empty 0 -8 0 10 -262144
-1 -1 0;
#X obj 99 472 tgl 20 0 empty empty empty 17 7 0 10 -1 -262144 -1 0
1;
#X obj 99 504 sel 1 0;
#X obj 99 445 change;
#X obj 393 319 t f f;
#X msg 340 360 0;
#N canvas 0 23 450 300 samp 0;
#X obj 49 61 inlet;
#X obj 218 62 inlet;
#X obj 122 250 outlet~;
#X obj 49 153 samp_once kwak;
#X obj 49 124 bng 15 250 50 0 empty empty empty 17 7 0 10 -262144 -1
-1;
#X msg 144 125 0 25500;
#X obj 218 155 samp_once kwak;
#X obj 218 126 bng 15 250 50 0 empty empty empty 17 7 0 10 -262144
-1 -1;
#X msg 313 127 25501 43500;
#X obj 313 92 loadbang;
#X obj 37 218 s \$0-send;
#X msg 37 188 /one;
#X msg 200 193 /two;
#X obj 200 224 s \$0-send;
#X msg 96 124 2;
#X msg 265 126 2;
#X connect 0 0 4 0;
#X connect 1 0 7 0;
#X connect 3 0 2 0;
#X connect 4 0 3 0;
#X connect 4 0 11 0;
#X connect 5 0 3 2;
#X connect 6 0 2 0;
#X connect 7 0 6 0;
#X connect 7 0 12 0;
#X connect 8 0 6 2;
#X connect 9 0 8 0;
#X connect 9 0 5 0;
#X connect 9 0 14 0;
#X connect 9 0 15 0;
#X connect 11 0 10 0;
#X connect 12 0 13 0;
#X connect 14 0 3 1;
#X connect 15 0 6 1;
#X restore 99 577 pd samp one two;
#N canvas 0 23 489 381 samp 0;
#X obj 58 267 samp_loop kwak;
#X floatatom 105 220 5 0 0 0 - - -;
#X msg 153 221 24000 25500;
#X obj 105 186 line;
#X msg 105 156 \$1 100;
#X obj 177 184 loadbang;
#X obj 329 308 s \$0-send;
#X msg 329 277 /three \$1;
#X floatatom 329 247 5 0 0 0 - - -;
#X obj 329 213 line;
#X msg 329 183 \$1 100;
#X obj 265 127 sel 0;
#X msg 265 158 0;
#X obj 329 119 spigot;
#X obj 59 39 inlet;
#X obj 58 68 t f f;
#X obj 58 319 outlet~;
#X obj 144 38 inlet;
#X obj 105 125 m_scale 0.5 0 8 20;
#X obj 329 149 m_scale 0.5 0 0 1;
#X connect 0 0 16 0;
#X connect 1 0 0 1;
#X connect 2 0 0 2;
#X connect 3 0 1 0;
#X connect 4 0 3 0;
#X connect 5 0 2 0;
#X connect 7 0 6 0;
#X connect 8 0 7 0;
#X connect 9 0 8 0;
#X connect 10 0 9 0;
#X connect 11 0 12 0;
#X connect 12 0 10 0;
#X connect 13 0 19 0;
#X connect 14 0 15 0;
#X connect 15 0 0 0;
#X connect 15 1 13 1;
#X connect 15 1 11 0;
#X connect 17 0 13 0;
#X connect 17 0 18 0;
#X connect 18 0 4 0;
#X connect 19 0 10 0;
#X restore 393 566 pd samp three;
#X obj 97 110 route pinch detected which;
#X obj 481 318 t f;
#X obj 97 360 change;
#X obj 97 284 moses 0.5;
#X obj 156 141 tgl 20 0 empty empty detected 22 10 0 10 -228856 -1
-1 0 1;
#N canvas 0 23 430 240 setup 0;
#N canvas 329 74 873 604 test 0;
#X obj 179 89 soundfiler;
#X obj 188 212 tabplay~ kwak;
#X msg 179 161 bang;
#X msg 179 48 read -resize kwak.wav kwak;
#X floatatom 246 126 5 0 0 0 - - -;
#X obj 228 255 hsl 128 15 0 1 0 0 empty empty empty -2 -8 0 10 -262144
-1 -1 0 1;
#X floatatom 228 293 5 0 0 0 - - -;
#X obj 230 331 *;
#X obj 294 299 hsl 128 15 0 1 0 0 empty empty empty -2 -8 0 10 -262144
-1 -1 0 1;
#X floatatom 294 337 5 0 0 0 - - -;
#X obj 296 375 *;
#X obj 209 403 pack f f;
#X obj 147 422 list;
#X msg 131 350 bang;
#X floatatom 232 365 5 0 0 0 - - -;
#X floatatom 334 388 5 0 0 0 - - -;
#X obj 200 427 print;
#X obj 302 419 int;
#X obj 200 347 int;
#X obj 272 386 t b f;
#X obj 371 418 u_show;
#X msg 376 458 26364 44056;
#X obj 304 222 bng 15 250 50 0 empty empty empty 17 7 0 10 -262144
-1 -1;
#X msg 265 170 0 11100;
#X obj 347 104 f;
#X msg 385 75 0;
#X floatatom 346 134 5 0 0 0 - - -;
#X msg 334 74 bang;
#X obj 381 105 + 1;
#X obj 436 125 sel 0 1 2;
#X msg 341 178 11101 26364;
#X msg 432 177 26365 44056;
#X obj 179 506 soundoutput;
#X obj 179 16 loadbang;
#X connect 0 0 4 0;
#X connect 1 0 32 0;
#X connect 1 1 22 0;
#X connect 2 0 1 0;
#X connect 3 0 0 0;
#X connect 4 0 7 1;
#X connect 4 0 10 1;
#X connect 5 0 6 0;
#X connect 6 0 7 0;
#X connect 7 0 18 0;
#X connect 8 0 9 0;
#X connect 9 0 10 0;
#X connect 10 0 17 0;
#X connect 11 0 12 1;
#X connect 11 0 16 0;
#X connect 11 0 20 0;
#X connect 12 0 1 0;
#X connect 13 0 12 0;
#X connect 14 0 11 0;
#X connect 15 0 19 0;
#X connect 17 0 15 0;
#X connect 18 0 14 0;
#X connect 19 0 11 0;
#X connect 19 1 11 1;
#X connect 20 0 21 0;
#X connect 22 0 24 0;
#X connect 23 0 1 0;
#X connect 24 0 28 0;
#X connect 24 0 26 0;
#X connect 25 0 24 1;
#X connect 26 0 29 0;
#X connect 27 0 24 0;
#X connect 28 0 24 1;
#X connect 29 0 30 0;
#X connect 29 1 31 0;
#X connect 30 0 1 0;
#X connect 31 0 1 0;
#X connect 33 0 3 0;
#X restore 286 110 pd test;
#X msg 286 68 \; pd dsp 1;
#X obj 286 40 loadbang;
#N canvas 397 101 966 663 patch1 0;
#X obj 399 551 soundoutput;
#X obj 229 100 tgl 15 0 empty empty empty 17 7 0 10 -262144 -1 -1 0
1;
#X obj 362 252 phasor~;
#X obj 505 329 -;
#X obj 505 298 swap;
#X obj 429 292 *~;
#X obj 429 330 +~;
#X obj 429 370 tabread4~ kwak;
#X floatatom 363 233 5 0 0 0 - - -;
#X msg 164 179 0 11100;
#X msg 477 263 11101 26364;
#X obj 362 395 hip~ 5;
#X obj 362 285 -~ 0.5;
#X obj 362 335 cos~;
#X obj 362 368 *~;
#X obj 362 310 *~ 0.5;
#X obj 611 249 phasor~;
#X obj 835 230 -;
#X obj 835 199 swap;
#X obj 678 289 *~;
#X obj 678 327 +~;
#X obj 678 367 tabread4~ kwak;
#X floatatom 611 219 5 0 0 0 - - -;
#X obj 611 392 hip~ 5;
#X obj 611 282 -~ 0.5;
#X obj 611 332 cos~;
#X obj 611 365 *~;
#X obj 611 307 *~ 0.5;
#X msg 835 167 26365 44056;
#X msg 484 198 0;
#X msg 695 174 0;
#X obj 362 423 c_spigot;
#X obj 407 191 tgl 15 0 empty empty empty 17 7 0 10 -262144 -1 -1 0
1;
#X obj 611 425 c_spigot;
#X obj 688 236 tgl 15 0 empty empty empty 17 7 0 10 -262144 -1 -1 0
1;
#X obj 867 293 samplerate~;
#X floatatom 835 378 10 0 0 0 - - -;
#X obj 835 261 t f b;
#X obj 803 409 delay;
#X obj 835 348 * 1000;
#X obj 803 438 bng 15 250 50 0 empty empty empty 17 7 0 10 -262144
-1 -1;
#X obj 650 113 bng 15 250 50 0 empty empty empty 17 7 0 10 -262144
-1 -1;
#X msg 650 171 1;
#X msg 803 462 0;
#X obj 650 137 t b b b;
#X obj 835 319 /;
#X obj 19 260 phasor~;
#X obj 243 241 -;
#X obj 243 210 swap;
#X obj 86 300 *~;
#X obj 86 338 +~;
#X obj 86 378 tabread4~ kwak;
#X floatatom 19 230 5 0 0 0 - - -;
#X obj 19 403 hip~ 5;
#X obj 19 293 -~ 0.5;
#X obj 19 343 cos~;
#X obj 19 376 *~;
#X obj 19 318 *~ 0.5;
#X msg 103 185 0;
#X obj 19 436 c_spigot;
#X obj 58 214 tgl 15 0 empty empty empty 17 7 0 10 -262144 -1 -1 0
1;
#X obj 275 304 samplerate~;
#X floatatom 243 389 10 0 0 0 - - -;
#X obj 243 272 t f b;
#X obj 211 420 delay;
#X obj 243 359 * 1000;
#X obj 211 449 bng 15 250 50 0 empty empty empty 17 7 0 10 -262144
-1 -1;
#X obj 58 124 bng 15 250 50 0 empty empty empty 17 7 0 10 -262144 -1
-1;
#X msg 58 182 1;
#X msg 211 473 0;
#X obj 58 148 t b b b;
#X obj 243 330 /;
#X obj 401 148 t f f;
#X obj 396 123 tgl 15 0 empty empty empty 17 7 0 10 -262144 -1 -1 0
1;
#X msg 267 472 1;
#X obj 434 174 sel 1 0;
#X obj 227 122 sel 1 0;
#X msg 251 149 0;
#X msg 135 143 1;
#X msg 172 143 0;
#X obj 303 173 m_scale 0 0.8 4 2;
#X obj 119 103 moses 0.5;
#X msg 557 179 0;
#X msg 230 180 0 26364;
#X obj 132 164 m_speedlimit 100;
#X obj 305 205 clip 1 4;
#X msg 294 120 2;
#X obj 688 209 change;
#X connect 1 0 76 0;
#X connect 2 0 12 0;
#X connect 2 0 5 0;
#X connect 3 0 5 1;
#X connect 4 0 3 0;
#X connect 4 1 3 1;
#X connect 4 1 6 1;
#X connect 5 0 6 0;
#X connect 6 0 7 0;
#X connect 7 0 14 1;
#X connect 8 0 2 0;
#X connect 9 0 48 0;
#X connect 10 0 4 0;
#X connect 11 0 31 0;
#X connect 12 0 15 0;
#X connect 13 0 14 0;
#X connect 14 0 11 0;
#X connect 15 0 13 0;
#X connect 16 0 24 0;
#X connect 16 0 19 0;
#X connect 17 0 19 1;
#X connect 17 0 37 0;
#X connect 18 0 17 0;
#X connect 18 1 17 1;
#X connect 18 1 20 1;
#X connect 19 0 20 0;
#X connect 20 0 21 0;
#X connect 21 0 26 1;
#X connect 22 0 16 0;
#X connect 23 0 33 0;
#X connect 24 0 27 0;
#X connect 25 0 26 0;
#X connect 26 0 23 0;
#X connect 27 0 25 0;
#X connect 28 0 18 0;
#X connect 29 0 2 1;
#X connect 30 0 16 1;
#X connect 31 0 0 1;
#X connect 31 0 0 0;
#X connect 32 0 31 1;
#X connect 33 0 0 1;
#X connect 33 0 0 0;
#X connect 34 0 33 1;
#X connect 35 0 45 1;
#X connect 36 0 38 1;
#X connect 37 0 45 0;
#X connect 37 1 35 0;
#X connect 38 0 40 0;
#X connect 39 0 36 0;
#X connect 40 0 43 0;
#X connect 41 0 44 0;
#X connect 42 0 87 0;
#X connect 43 0 34 0;
#X connect 43 0 87 0;
#X connect 44 0 42 0;
#X connect 44 1 38 0;
#X connect 44 2 30 0;
#X connect 45 0 39 0;
#X connect 46 0 54 0;
#X connect 46 0 49 0;
#X connect 47 0 49 1;
#X connect 47 0 63 0;
#X connect 48 0 47 0;
#X connect 48 1 47 1;
#X connect 48 1 50 1;
#X connect 49 0 50 0;
#X connect 50 0 51 0;
#X connect 51 0 56 1;
#X connect 52 0 46 0;
#X connect 53 0 59 0;
#X connect 54 0 57 0;
#X connect 55 0 56 0;
#X connect 56 0 53 0;
#X connect 57 0 55 0;
#X connect 58 0 46 1;
#X connect 59 0 0 0;
#X connect 59 0 0 1;
#X connect 60 0 59 1;
#X connect 61 0 71 1;
#X connect 62 0 64 1;
#X connect 63 0 71 0;
#X connect 63 1 61 0;
#X connect 64 0 66 0;
#X connect 65 0 62 0;
#X connect 66 0 69 0;
#X connect 67 0 70 0;
#X connect 68 0 60 0;
#X connect 69 0 60 0;
#X connect 69 0 74 0;
#X connect 70 0 68 0;
#X connect 70 1 64 0;
#X connect 70 2 58 0;
#X connect 71 0 65 0;
#X connect 72 0 32 0;
#X connect 72 1 75 0;
#X connect 73 0 72 0;
#X connect 75 0 29 0;
#X connect 75 1 41 0;
#X connect 75 1 82 0;
#X connect 76 0 67 0;
#X connect 76 1 77 0;
#X connect 77 0 73 0;
#X connect 77 0 41 0;
#X connect 78 0 84 0;
#X connect 79 0 84 0;
#X connect 80 0 85 0;
#X connect 81 0 78 0;
#X connect 81 1 79 0;
#X connect 82 0 73 0;
#X connect 83 0 48 0;
#X connect 85 0 8 0;
#X connect 85 0 52 0;
#X connect 85 0 22 0;
#X connect 86 0 85 0;
#X connect 87 0 34 0;
#X restore 286 138 pd patch1;
#X obj 35 135 n_oscsend localhost 8888;
#X obj 70 77 r \$0-send;
#X obj 70 104 n_oscformat;
#X obj 35 106 tgl 15 0 empty empty empty 17 7 0 10 -262144 -1 -1 1
1;
#X obj 35 42 loadbang;
#X connect 2 0 1 0;
#X connect 5 0 6 0;
#X connect 6 0 4 0;
#X connect 7 0 4 0;
#X connect 8 0 7 0;
#X restore 446 173 pd setup;
#X connect 0 0 24 0;
#X connect 1 0 0 1;
#X connect 2 0 0 0;
#X connect 5 0 26 0;
#X connect 6 0 26 0;
#X connect 7 1 21 0;
#X connect 8 0 22 0;
#X connect 9 0 22 1;
#X connect 10 0 23 0;
#X connect 11 0 13 0;
#X connect 12 0 11 0;
#X connect 13 0 25 0;
#X connect 13 0 27 0;
#X connect 14 0 12 0;
#X connect 15 0 19 0;
#X connect 15 1 10 0;
#X connect 16 0 15 1;
#X connect 17 0 18 0;
#X connect 18 0 8 0;
#X connect 18 1 9 0;
#X connect 19 0 17 0;
#X connect 20 0 16 0;
#X connect 20 1 21 0;
#X connect 21 0 15 0;
#X connect 22 0 3 0;
#X connect 22 0 3 1;
#X connect 23 0 3 0;
#X connect 23 0 3 1;
#X connect 24 0 14 0;
#X connect 24 1 28 0;
#X connect 24 2 20 0;
#X connect 25 0 23 1;
#X connect 26 0 15 0;
#X connect 27 0 5 0;
#X connect 27 1 6 0;
#X connect 28 0 7 0;
