#N canvas 147 23 639 748 12;
#X declare -path ./lib;
#X obj 97 77 n_oscreceive 9999;
#X obj 213 46 tgl 15 0 empty empty empty 17 7 0 10 -262144 -1 -1 0
1;
#X obj 97 46 tgl 15 0 empty empty listen 17 7 0 10 -228856 -1 -1 0
1;
#X obj 219 673 soundoutput;
#N canvas 0 22 450 278 (subpatch) 0;
#X array kwak 44056 float 2;
#X coords 0 1 44056 -1 180 90 1 0 0;
#X restore 326 53 graph;
#X msg 97 318 1;
#X msg 157 318 0;
#X obj 154 173 sel 1;
#X obj 99 536 bng 30 250 50 0 empty empty one 34 15 0 10 -204786 -1
-1;
#X obj 201 536 bng 30 250 50 0 empty empty two 34 15 0 10 -262130 -1
-1;
#X obj 393 527 tgl 30 0 empty empty three 34 15 0 10 -159808 -262144
-1 0 1;
#X floatatom 97 203 5 0 0 0 - - -;
#X obj 97 173 line;
#X obj 100 234 hsl 100 30 0 1 0 0 empty empty pinch 8 8 0 10 -204800
-1 -1 0 1;
#X msg 97 142 \$1 50;
#X obj 340 396 u_demux2;
#X obj 393 360 hradio 15 1 0 2 empty empty empty 0 -8 0 10 -262144
-1 -1 1;
#X obj 99 472 tgl 20 0 empty empty empty 17 7 0 10 -1 -262144 -1 0
1;
#X obj 99 504 sel 1 0;
#X obj 99 445 change;
#X obj 393 319 t f f;
#X msg 340 360 0;
#N canvas 0 23 450 300 samp 0;
#X obj 49 61 inlet;
#X obj 218 62 inlet;
#X obj 122 250 outlet~;
#X obj 49 153 samp_once kwak;
#X obj 49 124 bng 15 250 50 0 empty empty empty 17 7 0 10 -262144 -1
-1;
#X obj 218 155 samp_once kwak;
#X obj 218 126 bng 15 250 50 0 empty empty empty 17 7 0 10 -262144
-1 -1;
#X msg 313 127 25501 43500;
#X obj 313 92 loadbang;
#X obj 37 218 s \$0-send;
#X msg 37 188 /one;
#X msg 200 193 /two;
#X obj 200 224 s \$0-send;
#X msg 96 124 2;
#X msg 265 126 2;
#X msg 144 125 0 25500;
#X connect 0 0 4 0;
#X connect 1 0 6 0;
#X connect 3 0 2 0;
#X connect 4 0 3 0;
#X connect 4 0 10 0;
#X connect 5 0 2 0;
#X connect 6 0 5 0;
#X connect 6 0 11 0;
#X connect 7 0 5 2;
#X connect 8 0 7 0;
#X connect 8 0 15 0;
#X connect 8 0 13 0;
#X connect 8 0 14 0;
#X connect 10 0 9 0;
#X connect 11 0 12 0;
#X connect 13 0 3 1;
#X connect 14 0 5 1;
#X connect 15 0 3 2;
#X restore 99 577 pd samp one two;
#N canvas 0 23 489 381 samp 0;
#X obj 58 267 samp_loop kwak;
#X floatatom 105 220 5 0 0 0 - - -;
#X msg 153 221 24000 25500;
#X obj 105 186 line;
#X msg 105 156 \$1 100;
#X obj 177 184 loadbang;
#X obj 329 308 s \$0-send;
#X msg 329 277 /three \$1;
#X floatatom 329 247 5 0 0 0 - - -;
#X obj 329 213 line;
#X msg 329 183 \$1 100;
#X obj 265 127 sel 0;
#X msg 265 158 0;
#X obj 329 119 spigot;
#X obj 59 39 inlet;
#X obj 58 68 t f f;
#X obj 58 319 outlet~;
#X obj 144 38 inlet;
#X obj 105 125 m_scale 0.5 0 8 20;
#X obj 329 149 m_scale 0.5 0 0 1;
#X connect 0 0 16 0;
#X connect 1 0 0 1;
#X connect 2 0 0 2;
#X connect 3 0 1 0;
#X connect 4 0 3 0;
#X connect 5 0 2 0;
#X connect 7 0 6 0;
#X connect 8 0 7 0;
#X connect 9 0 8 0;
#X connect 10 0 9 0;
#X connect 11 0 12 0;
#X connect 12 0 10 0;
#X connect 13 0 19 0;
#X connect 14 0 15 0;
#X connect 15 0 0 0;
#X connect 15 1 13 1;
#X connect 15 1 11 0;
#X connect 17 0 13 0;
#X connect 17 0 18 0;
#X connect 18 0 4 0;
#X connect 19 0 10 0;
#X restore 393 566 pd samp three;
#X obj 481 318 t f;
#X obj 97 360 change;
#X obj 97 284 moses 0.5;
#X obj 154 141 tgl 20 0 empty empty detected 22 10 0 10 -228856 -1
-1 0 1;
#N canvas 0 23 430 189 setup 0;
#X obj 286 40 loadbang;
#X obj 35 135 n_oscsend localhost 8888;
#X obj 70 77 r \$0-send;
#X obj 70 104 n_oscformat;
#X obj 35 106 tgl 15 0 empty empty empty 17 7 0 10 -262144 -1 -1 1
1;
#X obj 35 42 loadbang;
#N canvas 329 74 648 610 loop 0;
#X obj 424 108 soundfiler;
#X obj 48 506 tabplay~ kwak;
#X msg 48 361 bang;
#X msg 25 58 read -resize kwak.wav kwak;
#X floatatom 424 141 5 0 0 0 - - -;
#X obj 318 206 hsl 128 15 0 1 0 0 empty empty empty -2 -8 0 10 -262144
-1 -1 0 1;
#X floatatom 315 241 5 0 0 0 - - -;
#X obj 315 279 *;
#X obj 409 249 hsl 128 15 0 1 0 0 empty empty empty -2 -8 0 10 -262144
-1 -1 0 1;
#X floatatom 406 280 5 0 0 0 - - -;
#X obj 406 309 *;
#X obj 315 428 pack f f;
#X obj 290 469 list;
#X msg 270 428 bang;
#X floatatom 315 334 5 0 0 0 start - -;
#X floatatom 406 368 5 0 0 0 stop - -;
#X obj 406 340 int;
#X obj 315 308 int;
#X obj 406 399 t b f;
#X msg 70 400 0 11100;
#X msg 92 434 11101 26364;
#X msg 111 463 26365 44056;
#X obj 48 546 soundoutput;
#X obj 25 26 loadbang;
#X msg 424 72 read -resize \$1 kwak;
#X obj 424 42 openpanel;
#X obj 424 14 bng 15 250 50 0 empty empty empty 17 7 0 10 -262144 -1
-1;
#X text 289 168 find loop points;
#X obj 338 469 print;
#X connect 0 0 4 0;
#X connect 1 0 22 0;
#X connect 2 0 1 0;
#X connect 3 0 0 0;
#X connect 4 0 7 1;
#X connect 4 0 10 1;
#X connect 5 0 6 0;
#X connect 6 0 7 0;
#X connect 7 0 17 0;
#X connect 8 0 9 0;
#X connect 9 0 10 0;
#X connect 10 0 16 0;
#X connect 11 0 12 1;
#X connect 11 0 28 0;
#X connect 12 0 1 0;
#X connect 13 0 12 0;
#X connect 14 0 11 0;
#X connect 15 0 18 0;
#X connect 16 0 15 0;
#X connect 17 0 14 0;
#X connect 18 0 11 0;
#X connect 18 1 11 1;
#X connect 19 0 1 0;
#X connect 20 0 1 0;
#X connect 21 0 1 0;
#X connect 23 0 3 0;
#X connect 24 0 0 0;
#X connect 25 0 24 0;
#X connect 26 0 25 0;
#X restore 285 137 pd loop points;
#X msg 286 67 \; pd dsp 1 \; #volume set 1;
#X connect 0 0 7 0;
#X connect 2 0 3 0;
#X connect 3 0 1 0;
#X connect 4 0 1 0;
#X connect 5 0 4 0;
#X restore 446 173 pd setup;
#X obj 97 110 route pinch detected mode;
#X obj 382 695 declare -path ./lib;
#X connect 0 0 29 0;
#X connect 1 0 0 1;
#X connect 2 0 0 0;
#X connect 5 0 25 0;
#X connect 6 0 25 0;
#X connect 7 1 21 0;
#X connect 8 0 22 0;
#X connect 9 0 22 1;
#X connect 10 0 23 0;
#X connect 11 0 13 0;
#X connect 12 0 11 0;
#X connect 13 0 24 0;
#X connect 13 0 26 0;
#X connect 14 0 12 0;
#X connect 15 0 19 0;
#X connect 15 1 10 0;
#X connect 16 0 15 1;
#X connect 17 0 18 0;
#X connect 18 0 8 0;
#X connect 18 1 9 0;
#X connect 19 0 17 0;
#X connect 20 0 16 0;
#X connect 20 1 21 0;
#X connect 21 0 15 0;
#X connect 22 0 3 0;
#X connect 22 0 3 1;
#X connect 23 0 3 0;
#X connect 23 0 3 1;
#X connect 24 0 23 1;
#X connect 25 0 15 0;
#X connect 26 0 5 0;
#X connect 26 1 6 0;
#X connect 27 0 7 0;
#X connect 29 0 14 0;
#X connect 29 1 27 0;
#X connect 29 2 20 0;
