#N canvas 43 127 559 523 12;
#X obj 110 231 phasor~;
#X obj 355 168 -;
#X obj 355 83 swap;
#X obj 177 282 *~;
#X obj 177 316 +~;
#X obj 110 414 hip~ 5;
#X obj 110 282 -~ 0.5;
#X obj 110 352 cos~;
#X obj 110 384 *~;
#X obj 110 316 *~ 0.5;
#X msg 156 171 0;
#X obj 110 444 c_spigot;
#X obj 330 381 change;
#X obj 177 352 tabread4~ \$1;
#X obj 110 477 outlet~;
#X obj 110 51 inlet;
#X obj 355 51 inlet;
#X obj 45 51 inlet;
#X obj 380 122 t f f;
#X text 32 293 sampler;
#X text 353 27 sample-start sample-end;
#X text 112 27 freq;
#X text 38 27 trigger;
#X text 204 83 args: table;
#X obj 156 139 sel 1;
#X obj 45 83 t f f;
#X connect 0 0 6 0;
#X connect 0 0 3 0;
#X connect 1 0 3 1;
#X connect 2 0 1 0;
#X connect 2 1 18 0;
#X connect 3 0 4 0;
#X connect 4 0 13 0;
#X connect 5 0 11 0;
#X connect 6 0 9 0;
#X connect 7 0 8 0;
#X connect 8 0 5 0;
#X connect 9 0 7 0;
#X connect 10 0 0 1;
#X connect 11 0 14 0;
#X connect 12 0 11 1;
#X connect 13 0 8 1;
#X connect 15 0 0 0;
#X connect 16 0 2 0;
#X connect 17 0 25 0;
#X connect 18 0 4 1;
#X connect 18 1 1 1;
#X connect 24 0 10 0;
#X connect 25 0 12 0;
#X connect 25 1 24 0;
