#N canvas 343 138 559 523 12;
#X obj 355 168 -;
#X obj 355 83 swap;
#X obj 177 282 *~;
#X obj 177 316 +~;
#X obj 110 414 hip~ 5;
#X obj 110 282 -~ 0.5;
#X obj 110 352 cos~;
#X obj 110 384 *~;
#X obj 110 316 *~ 0.5;
#X msg 170 161 0;
#X obj 110 444 c_spigot;
#X obj 387 227 samplerate~;
#X obj 355 198 t f b;
#X obj 323 316 delay;
#X obj 355 282 * 1000;
#X msg 138 161 1;
#X msg 355 385 0;
#X obj 138 127 t b b b;
#X obj 355 253 /;
#X obj 355 414 change;
#X obj 177 352 tabread4~ \$1;
#X obj 110 477 outlet~;
#X obj 110 51 inlet;
#X obj 355 51 inlet;
#X obj 45 51 inlet;
#X obj 380 122 t f f;
#X text 32 293 sampler;
#X text 353 27 sample-start sample-end;
#X text 112 27 freq;
#X text 38 27 trigger;
#X text 392 354 one-shot envelope;
#X text 204 83 args: table;
#X obj 110 231 phasor~ 1;
#X obj 323 477 outlet;
#X obj 323 352 t b b;
#X connect 0 0 2 1;
#X connect 0 0 12 0;
#X connect 1 0 0 0;
#X connect 1 1 25 0;
#X connect 2 0 3 0;
#X connect 3 0 20 0;
#X connect 4 0 10 0;
#X connect 5 0 8 0;
#X connect 6 0 7 0;
#X connect 7 0 4 0;
#X connect 8 0 6 0;
#X connect 9 0 32 1;
#X connect 10 0 21 0;
#X connect 11 0 18 1;
#X connect 12 0 18 0;
#X connect 12 1 11 0;
#X connect 13 0 34 0;
#X connect 14 0 13 1;
#X connect 15 0 19 0;
#X connect 16 0 19 0;
#X connect 17 0 15 0;
#X connect 17 1 9 0;
#X connect 17 2 13 0;
#X connect 18 0 14 0;
#X connect 19 0 10 1;
#X connect 20 0 7 1;
#X connect 22 0 32 0;
#X connect 23 0 1 0;
#X connect 24 0 17 0;
#X connect 25 0 3 1;
#X connect 25 1 0 1;
#X connect 32 0 5 0;
#X connect 32 0 2 0;
#X connect 34 0 33 0;
#X connect 34 1 16 0;
